# xmcd
#
# Track frame offsets:
# 150
# 21843
# 43317
# 63327
# 92407
# 103306
# 115469
# 138526
# 151984
# 163401
# 175541
# 186700
# 198769
# 221127
# 240686
# 270226
# 285243
# 305676
# 331275
#
# Disc length: 4761 seconds
#
# Revision: 0
# Processed by: cddbd v1.4PL0 Copyright (c) Steve Scherf et al.
# Submitted via: Audion 2.6.0 (http://www.panic.com/audion/)
#
DISCID=1a129713
DTITLE=77 - 77
DYEAR=1900
DGENRE=
TTITLE0=7
TTITLE1=8
TTITLE2=9
TTITLE3=10
TTITLE4=1
TTITLE5=2
TTITLE6=3
TTITLE7=4
TTITLE8=5
TTITLE9=6
TTITLE10=55
TTITLE11=66666
TTITLE12=t667
TTITLE13=54535
TTITLE14=23
TTITLE15=4545
TTITLE16=yyr
TTITLE17=syy
TTITLE18=got7
EXTD=
EXTT0=
EXTT1=
EXTT2=
EXTT3=
EXTT4=
EXTT5=
EXTT6=
EXTT7=
EXTT8=
EXTT9=
EXTT10=
EXTT11=
EXTT12=
EXTT13=
EXTT14=
EXTT15=
EXTT16=
EXTT17=
EXTT18=
PLAYORDER=
